<svg width="253" height="471" viewBox="0 0 253 471" fill="none" xmlns="http://www.w3.org/2000/svg">
<path d="M203.174 171.982C202.294 171.982 179.339 163.517 167.972 159.285C167.238 160.573 166.102 163.259 167.422 163.701C169.072 164.253 167.972 167.566 166.322 172.534C170.172 176.951 177.872 199.586 178.972 204.555C179.522 208.971 172.372 222.773 169.622 228.294C171.272 231.607 195.473 238.232 200.423 238.232C200.973 237.127 209.774 229.95 219.124 226.638C219.124 216.701 226.275 213.94 227.925 212.284C229.575 210.628 227.375 194.065 229.575 185.232C226.825 176.399 233.425 178.607 238.375 178.607C243.325 178.607 242.225 182.472 240.575 186.888C243.876 188.545 239.475 208.971 240.575 212.284C241.675 215.596 243.325 216.148 245.526 217.253C247.726 218.357 248.276 226.086 248.276 233.815C251.576 237.679 251.576 242.648 246.626 247.065C254.546 250.598 249.926 255.898 246.626 258.106V268.044C239.145 279.085 225.175 274.117 219.124 270.252C218.208 269.516 216.374 266.829 216.374 261.971C191.733 261.971 169.072 253.506 160.821 249.273C154.038 266.94 139.37 304.26 134.97 312.21C142.12 319.387 158.071 364.105 159.721 372.939C162.471 380.116 167.422 407.719 168.522 430.355C186.563 431.238 194.006 448.021 195.473 456.302C188.873 460.535 172.042 469 157.521 469C139.37 469 123.97 461.823 119.019 457.406C122.539 439.74 137.354 432.011 144.321 430.355C143.954 425.754 142.12 410.038 137.72 383.98C132.22 351.407 109.669 316.627 109.669 315.522C109.669 314.418 106.919 312.21 104.169 312.21C112.969 344.23 105.819 377.907 104.719 383.98C103.618 390.053 95.9181 415.448 89.8678 424.834C104.389 430.134 108.752 443.604 109.119 449.677C104.719 454.094 90.8578 462.706 70.6168 461.823C45.3155 460.719 39.2652 455.198 32.6649 449.677C40.9153 422.073 59.0662 423.73 65.1165 422.625C67.8667 418.209 77.7672 386.188 83.2675 364.105C88.1077 330.981 78.6839 309.082 73.367 302.273C67.8667 299.696 56.3161 293.439 54.116 289.023C51.3658 283.502 69.5168 204.555 68.4167 204.003C67.3167 203.451 64.0165 199.586 62.9164 198.482C61.8164 197.378 60.1663 194.065 59.6163 185.232C52.4659 173.086 34.315 162.045 28.2647 164.253C22.2144 166.461 27.1646 196.826 33.2149 202.346C39.2652 207.867 50.8158 226.638 51.9159 229.95C52.7959 232.6 49.3491 235.471 47.5157 236.575C47.149 236.207 46.4156 236.907 46.4156 242.648C42.5654 255.346 35.415 253.69 35.9651 254.242C36.5151 254.794 37.0651 259.211 37.0651 261.971C37.0651 264.731 31.5648 266.388 27.1646 264.731C22.7644 263.075 20.0143 253.138 18.3642 244.304C11.2138 245.961 10.6638 222.773 12.3139 207.867C-12.9874 142.722 14.514 136.097 28.2647 136.649C42.0154 137.201 68.9668 160.941 77.7672 169.774C81.7274 162.266 101.052 153.764 110.219 150.451C118.286 123.583 135.63 67.3083 140.47 57.1501C146.521 44.4523 156.971 44.4523 164.122 42.7961C165.002 40.146 168.888 39.1155 170.722 38.9315C172.922 32.4906 177.762 18.1734 179.522 12.4319C175.11 5.80702 180.622 0.286241 186.673 2.49455C195.033 8.67782 189.056 13.5361 185.023 15.1923L177.872 40.5879C178.972 40.5879 181.392 41.6921 182.272 46.1087C206.474 59.9106 199.323 86.4104 198.223 93.0353C203.724 95.7957 212.524 100.212 216.374 105.733C221.324 119.535 209.774 131.129 207.574 133.889C206.474 136.649 186.673 135.545 185.573 136.649C184.473 137.754 183.923 144.379 182.272 146.587C180.952 148.353 175.122 148.427 172.372 148.243L171.822 149.899L204.824 161.493C205.557 161.677 207.244 162.707 208.124 165.357C209.224 168.67 204.274 171.982 203.174 171.982Z" fill="#A8B2B4" fill-opacity="0.3" stroke="#A8B2B4" stroke-width="4"/>
</svg>
