<svg width="140" height="421" viewBox="0 0 140 421" fill="none" xmlns="http://www.w3.org/2000/svg">
<path d="M131.896 111.357C131.896 115.981 115.34 115.21 107.063 114.247C112.145 118.871 114.185 127.349 114.57 131.009C115.34 143.919 115.263 173.09 108.795 186.5C100.71 203.263 108.795 212.511 107.063 224.649C105.33 236.788 103.02 229.274 103.02 233.898C103.02 238.522 101.865 243.146 96.6676 244.88C91.47 246.614 103.598 279.562 105.908 288.81C108.218 298.059 108.795 321.18 107.64 325.804C106.485 330.428 94.9351 360.485 93.7801 369.156C92.6251 377.826 108.795 385.34 113.415 388.808C118.035 392.277 126.698 395.745 122.656 406.727C118.613 417.71 93.2026 410.195 84.5399 409.039C84.5399 420.022 81.0749 417.132 77.0323 418.866C45.2692 420.6 25.0564 404.993 23.3239 403.259C21.9378 401.872 22.7464 396.901 23.3239 394.589C20.8213 393.24 16.2783 390.427 18.1263 389.965C16.3938 376.67 25.6339 340.832 29.6765 330.428C33.719 320.024 33.1415 307.885 30.8315 299.793C20.4363 278.406 19.2813 249.504 16.3937 244.302C13.5062 239.1 -0.931559 207.309 2.5335 188.234C11.1961 127.541 53.9319 97.484 58.552 93.4378C63.172 89.3916 60.862 87.0795 58.552 81.8773C56.2419 76.6751 48.1567 78.9872 44.6917 66.2706C41.9196 56.0974 47.7717 47.7738 51.0443 44.8837L44.1141 31.5891L55.0868 32.7452L52.7768 18.8726C54.1243 19.2579 58.3209 21.5315 64.327 27.543C86.2724 9.6242 105.33 31.0111 106.485 29.8551C107.64 28.699 107.063 13.6704 106.485 5C118.959 13.786 123.233 25.2309 123.811 29.8551C124.773 27.3503 126.467 19.6818 125.543 9.04617C148.066 33.9012 133.628 56.4442 131.318 58.7563C129.47 60.606 122.078 60.6831 118.613 60.4904C118.613 60.6831 118.728 61.5308 119.19 63.3805C119.768 65.6926 124.388 72.6289 125.543 74.941C126.698 77.2531 126.121 80.7213 126.121 82.4553C126.121 84.1894 126.121 83.0333 122.078 85.9235C120.345 89.9696 123.233 88.8136 126.121 90.5477C129.008 92.2817 126.698 96.9059 124.388 97.484C122.078 98.062 122.078 99.218 123.233 102.108C124.388 104.998 131.896 105.576 131.896 111.357Z" fill="#FB5607" fill-opacity="0.3" stroke="#FC6840" stroke-width="4"/>
</svg>
