<svg width="318" height="398" viewBox="0 0 318 398" fill="none" xmlns="http://www.w3.org/2000/svg">
<path d="M88.595 162.417C93.5894 164.827 108.31 159.66 115.046 156.775C118.496 170.14 129.229 165.977 131.748 168.497C133.764 170.512 133.574 185.293 133.227 192.432C128.956 196.285 119.755 207.67 117.127 222.393C113.841 240.796 130.708 280.452 131.748 283.355C132.581 285.677 134.943 297.358 136.02 302.909C134.669 302.909 131.924 303.511 131.748 305.921C131.529 308.934 136.129 345.358 136.02 348.753C135.91 352.149 106.01 363.378 104.531 364.254C103.052 365.131 98.8357 376.578 106.01 379.864C113.184 383.151 137.006 378.112 139.908 377.454C142.23 376.929 165.227 373.803 176.435 372.306C176.819 372.379 177.914 371.068 179.228 365.24C180.871 357.955 174.683 352.368 173.642 349.849C172.602 347.329 173.807 302.909 173.642 301.649C173.478 300.389 170.411 299.841 168.385 300.499C167.892 296.829 162.197 286.641 159.678 280.452C160.554 274.92 164.114 240.632 164.114 232.964C165.866 237.346 222.163 284.012 225.832 285.984C229.501 287.956 234.375 299.129 239.03 305.921C239.03 313.096 264.111 348.48 264.878 348.753C265.645 349.027 269.149 353.135 270.628 359.598C272.107 366.062 281.088 385.67 285.414 391.695C289.74 397.72 302.391 395.748 306.936 395.475C311.481 395.201 314.986 388.19 315.972 378.824C316.958 369.458 291.548 350.123 290.179 345.358C288.809 340.592 280.102 306.14 278.952 300.499C277.802 294.857 277.09 294.583 273.531 293.707C272.983 290.311 240.673 267.252 239.03 262.596C237.387 257.94 211.429 220.859 206.665 214.56C209.293 214.944 213.072 209.138 214.715 209.028C216.358 208.919 216.631 209.795 219.37 210.562C222.108 211.329 243.082 192.158 245.327 190.406C247.124 189.003 246.076 187.119 245.327 186.352C247.354 184.381 252.107 178.049 254.911 168.497C258.416 156.556 196.095 118.106 189.414 114.162C182.733 110.218 180.214 114.162 176.545 108.63C172.876 103.098 173.807 87.2138 173.807 82.6677C189.797 83.3797 189.305 73.8493 186.621 71.2202C190.126 70.5629 202.01 58.3486 205.515 47.9418C208.29 39.7021 197.058 36.0291 193.428 35.1829C195.034 35.0848 195.438 33.0571 195.438 30.1407C201.955 27.3472 225.284 33.1532 231.856 38.8495C238.427 44.5459 236.018 68.7006 233.389 83.9275C230.76 99.1543 245.711 113.176 259.073 119.475C272.435 125.774 301.022 119.584 303.76 115.203C296.695 113.943 286.674 102.605 282.621 93.5127C278.569 84.4204 299.488 30.4145 255.185 8.88884C210.881 -12.6368 188.155 23.2393 186.621 22.3629C185.088 21.4866 183.883 19.2957 178.954 23.2393C159.404 5.87634 131.584 10.6416 117.017 17.8168C102.45 24.992 108.693 49.3659 110.938 54.2406C113.184 59.1154 110.938 71.8775 108.693 75.6568C112.023 78.6802 119.463 74.397 122.767 71.8775C120.851 76.5331 117.16 86.8742 117.729 90.9931C118.441 96.1418 134.76 94.6081 135.144 96.1418C135.527 97.6754 138.265 99.3186 141.661 99.3186C142.055 101.553 144.6 102.002 145.823 101.948C145.658 104.723 145.428 111.051 145.823 114.162C138.375 115.038 99 135.578 94.1808 139.631C92.8665 137.221 71.7279 119.42 61.3229 110.821C61.9435 105.143 63.9077 93.9509 66.7992 94.6081C70.4136 95.4297 74.028 88.145 76.0542 81.2984C79.2524 80.5096 80.636 76.7705 80.9281 74.9995L45.9892 59.4988L19.7576 44.9293L6.66913 34.4677L3 38.6852L10.0645 49.3659V53.2L28.6292 74.9995C27.899 76.5514 26.4387 81.7585 26.4387 90.1715C18.1694 104.905 27.2601 111.971 31.4769 115.969C34.8503 119.168 43.3605 118.252 47.1939 117.394C58.9133 131.397 83.6006 160.007 88.595 162.417Z" fill="#9747FF" fill-opacity="0.3" stroke="#9747FF" stroke-width="4"/>
</svg>
